<svg width="512" height="256" viewBox="0 0 512 256" fill="none" xmlns="http://www.w3.org/2000/svg">
<path fill-rule="evenodd" clip-rule="evenodd" d="M6.60858 209.684L107.32 84.4993L134.872 98.0612L200.43 0L241.283 44.8594L256.486 33.3832L315.391 102.235L357.197 56.3329L474.058 209.684L361.472 79.2853L344.369 134.053L360.046 177.347L259.335 49.5534L258.245 93.1564L315.391 209.684L208.504 29.2092L239.384 126.75L196.155 31.8175L172.402 94.9329L177.151 53.7245L117.769 202.382L124.893 139.789L100.192 114.754L6.60858 209.684Z" fill="#101A56"/>
<path fill-rule="evenodd" clip-rule="evenodd" d="M507.914 229.264C348.46 110.673 100.272 273.71 0 210.837C110.243 299.934 367.923 149.318 507.914 229.264Z" fill="#101A56"/>
<path fill-rule="evenodd" clip-rule="evenodd" d="M512 238.59C386.894 165.168 200.827 267.344 105.464 243.683C208.798 289.875 401.175 187.527 512 238.59Z" fill="#101A56"/>
</svg>
